# xmcd
#
# Track frame offsets:
#	150
#	12755
#	33065
#	45030
#	60414
#	77899
#	99481
#	114435
#	133914
#	155570
#	180957
#	198424
#
# Disc length: 2862 seconds
#
# Revision: 0
# Processed by: cddbd v1.5.2PL0 Copyright (c) Steve Scherf et al.
# Submitted via: dBpowerAMP V4.0
#
DISCID=860b2c0c
DTITLE=Various Artist - Film and TV sampler(spring 2007)
DYEAR=2007
DGENRE=roots
TTITLE0=Again and Again - The bird and the bee
TTITLE1=I'm a broken heart-The bird and the bee
TTITLE2=Frank and Ava - Suzanne Vega
TTITLE3=Pornographer's dream-Suzanne Vega
TTITLE4=Shout out loud- Amos Lee
TTITLE5=Careless-Amos Lee
TTITLE6=Thinking about you-Norah Jones
TTITLE7=Wish I could - Norah Jones
TTITLE8=Lasy your head down - Keren Ann
TTITLE9=In your Back - Keren Ann
TTITLE10=Simple things - Elisabeth Withers
TTITLE11=Be with you- Elisabeth Withers
EXTD=
EXTT0=
EXTT1=
EXTT2=
EXTT3=
EXTT4=
EXTT5=
EXTT6=
EXTT7=
EXTT8=
EXTT9=
EXTT10=
EXTT11=
PLAYORDER=
